<svg width="645" height="591" viewBox="0 0 645 591" fill="none" xmlns="http://www.w3.org/2000/svg">
<g id="anim">
<g id="page">
<path id="Vector" d="M645 0.365509H0.275269V413.276H645V0.365509Z" fill="#E6E6E6"/>
<path id="Vector_2" d="M626.564 52.1548H18.7111V388.848H626.564V52.1548Z" fill="#A99494" fill-opacity="0.51"/>
<path id="Vector_3" d="M644.725 0H0V27.3903H644.725V0Z" fill="#143015"/>
<path id="Vector_4" d="M20.3542 19.0799C23.1579 19.0799 25.4308 16.8071 25.4308 14.0034C25.4308 11.1996 23.1579 8.92679 20.3542 8.92679C17.5505 8.92679 15.2776 11.1996 15.2776 14.0034C15.2776 16.8071 17.5505 19.0799 20.3542 19.0799Z" fill="white"/>
<path id="Vector_5" d="M39.6236 19.0799C42.4273 19.0799 44.7002 16.8071 44.7002 14.0034C44.7002 11.1996 42.4273 8.92679 39.6236 8.92679C36.8199 8.92679 34.5471 11.1996 34.5471 14.0034C34.5471 16.8071 36.8199 19.0799 39.6236 19.0799Z" fill="white"/>
<path id="Vector_6" d="M58.893 19.0799C61.6967 19.0799 63.9696 16.8071 63.9696 14.0034C63.9696 11.1996 61.6967 8.92679 58.893 8.92679C56.0893 8.92679 53.8165 11.1996 53.8165 14.0034C53.8165 16.8071 56.0893 19.0799 58.893 19.0799Z" fill="white"/>
<path id="Vector_7" d="M212.388 79.8477H93.5006V208.829H212.388V79.8477Z" fill="#E6E6E6"/>
<path id="Vector_8" d="M382.08 79.8477H263.193V208.829H382.08V79.8477Z" fill="#E6E6E6"/>
<path id="Vector_9" d="M551.772 79.8477H432.885V208.829H551.772V79.8477Z" fill="#E6E6E6"/>
<path id="Vector_10" d="M212.388 232.176H93.5006V361.158H212.388V232.176Z" fill="#E6E6E6"/>
<path id="Vector_11" d="M382.08 232.176H263.193V361.158H382.08V232.176Z" fill="#E6E6E6"/>
<path id="Vector_12" d="M551.772 232.176H432.885V361.158H551.772V232.176Z" fill="#E6E6E6"/>
<path id="Vector_13" d="M291.928 265.325L313.65 256.737L316.175 299.676C316.175 299.676 320.722 312.81 319.206 317.862C319.206 317.862 320.217 326.45 317.691 326.955C315.165 327.46 308.093 328.47 307.588 327.965C307.083 327.46 307.083 325.945 307.083 325.945C307.083 325.945 302.031 329.481 301.526 333.522C301.526 333.522 280.309 340.089 279.804 334.027C279.299 327.965 290.412 322.914 290.412 322.914L299 309.779L291.928 265.325Z" fill="#CB4646"/>
<path id="Vector_14" d="M337.897 265.325L359.619 256.737L362.145 299.676C362.145 299.676 366.692 312.81 365.176 317.862C365.176 317.862 366.187 326.45 363.661 326.955C361.135 327.46 354.063 328.47 353.557 327.965C353.052 327.46 353.052 325.945 353.052 325.945C353.052 325.945 348.001 329.481 347.496 333.522C347.496 333.522 326.279 340.089 325.774 334.027C325.268 327.965 336.382 322.914 336.382 322.914L344.97 309.779L337.897 265.325Z" fill="#C23A3A"/>
<path id="Vector_15" d="M340.022 99.5098C340.022 99.5098 335.397 112.434 340.756 118.262L336.289 133.614C336.289 133.614 352.162 181.236 347.627 187.888C347.627 187.888 330.695 196.354 296.831 184.864L310.588 131.498L308.623 108.972L311.344 98.3893L317.391 97.7845C317.391 97.7845 313.763 111.391 320.415 113.507C327.067 115.624 333.556 98.1242 333.556 98.1242L340.022 99.5098Z" fill="#3F3D56"/>
<path id="Vector_16" d="M126.422 182.941L132.258 185.329L160.116 148.716L168.871 191.696L174.708 190.635C178.452 153.58 181.505 115.785 177.759 97.9093L156.136 96.9807L146.32 128.287L141.544 149.512L126.422 182.941Z" fill="#BFB769"/>
<path id="Vector_17" d="M525.7 276.018C523.585 273.48 519.949 272.107 516.458 271.366C516.562 271.048 505.839 268.834 505.66 269.29L501.619 266.071L489.204 272.518L482.227 267.769L478.985 268.919C479.117 268.347 468.924 270.112 468.924 270.112C466.977 270.182 464.49 270.304 461.706 270.518C451.957 271.268 451.207 296.516 451.207 296.516C455.693 294.681 460.476 293.68 465.321 293.561L467.956 323.763C481.508 322.601 495.722 323.953 510.451 327.263L517.36 303.522L533.449 297.266C533.449 297.266 530.7 282.017 525.7 276.018Z" fill="#3F3D56"/>
</g>
<path id="shirt" d="M176.148 257.309C176.523 257.392 176.837 257.466 177.071 257.528L177.036 257.621L177.618 257.731C180.742 258.321 183.875 259.397 185.662 261.305C187.828 263.618 189.544 267.773 190.725 271.425C191.311 273.237 191.758 274.901 192.058 276.113C192.208 276.718 192.321 277.21 192.397 277.55C192.404 277.584 192.412 277.616 192.418 277.647L178.36 282.512L178.062 282.615L178.026 282.927L171.872 336.404C158.961 333.861 146.479 332.807 134.549 333.661L132.198 274.989L132.179 274.499L131.688 274.509C127.529 274.6 123.419 275.326 119.538 276.655C119.54 276.617 119.542 276.578 119.545 276.537C119.58 275.989 119.64 275.204 119.74 274.259C119.939 272.369 120.294 269.847 120.919 267.313C121.546 264.771 122.436 262.251 123.688 260.34C124.939 258.432 126.504 257.195 128.481 257.06C130.979 256.889 133.21 256.791 134.957 256.735L134.988 256.734L135.018 256.73L134.941 256.236L135.018 256.73L135.018 256.73L135.019 256.73L135.024 256.729L135.043 256.726L135.12 256.714C135.187 256.704 135.285 256.689 135.41 256.67C135.66 256.633 136.017 256.579 136.445 256.517C137.301 256.392 138.441 256.23 139.577 256.082C140.714 255.934 141.84 255.802 142.67 255.735C142.945 255.712 143.181 255.698 143.371 255.692L143.283 256.029L144.145 255.757L146.845 254.904L152.929 258.589L153.157 258.727L153.398 258.616L164.306 253.575L167.707 255.985L168.206 256.339L168.343 256.029C168.371 256.03 168.403 256.031 168.438 256.033C168.698 256.046 169.072 256.084 169.531 256.143C170.446 256.26 171.656 256.454 172.862 256.668C174.068 256.882 175.263 257.115 176.148 257.309ZM177.711 257.239L178.18 257.413C178.19 257.387 178.197 257.361 178.202 257.336C181.189 257.95 184.223 259.037 186.027 260.964C190.526 265.767 193 277.975 193 277.975L177.711 257.239ZM177.439 257.641C177.44 257.642 177.441 257.642 177.441 257.642C177.441 257.642 177.44 257.642 177.439 257.641Z" fill="#378B35" stroke="black"/>
<g id="boxes">
<path id="Vector_18" d="M415.929 574.049L335.507 590.51L333.674 590.323L263 583.19V493.627L349.516 479L412.275 486.319L412.298 486.716V486.903L415.929 574.049Z" fill="#E6E6E6"/>
<path id="Vector_19" opacity="0.1" d="M415.929 574.049L335.507 590.51L333.674 590.323V498.507L412.298 486.716L415.929 574.049Z" fill="black"/>
<path id="Vector_20" opacity="0.05" d="M412.298 486.903L412.275 486.926L333.674 498.507L263 493.627L349.516 479L412.275 486.319L412.298 486.716V486.903Z" fill="black"/>
<path id="Vector_21" d="M321.626 528.076L272.73 524.884L271.232 547.836L320.128 551.027L321.626 528.076Z" fill="white"/>
<path id="Vector_22" d="M309.662 534.811L283.717 533.117L283.196 541.1L309.141 542.794L309.662 534.811Z" fill="#325E33"/>
<path id="Vector_23" d="M524.929 574.049L444.507 590.51L442.674 590.323L372 583.19V493.627L458.516 479L521.275 486.319L521.298 486.716V486.903L524.929 574.049Z" fill="#325E33"/>
<path id="Vector_24" opacity="0.1" d="M524.929 574.049L444.507 590.51L442.674 590.323V498.507L521.298 486.716L524.929 574.049Z" fill="black"/>
<path id="Vector_25" opacity="0.05" d="M521.298 486.903L521.275 486.926L442.674 498.507L372 493.627L458.516 479L521.275 486.319L521.298 486.716V486.903Z" fill="black"/>
<path id="Vector_26" d="M430.626 528.076L381.73 524.884L380.232 547.836L429.128 551.027L430.626 528.076Z" fill="white"/>
<path id="Vector_27" d="M418.662 534.811L392.717 533.117L392.196 541.1L418.141 542.794L418.662 534.811Z" fill="#325E33"/>
</g>
<path id="pant" d="M480.678 97.6123C480.678 97.6123 472.712 108.687 473.101 113.155C473.489 117.624 478.541 190.482 478.541 190.482L490.392 191.065L486.895 138.607L489.809 124.424L496.998 190.482L511.57 190.87L498.552 105.19L496.027 97.6124L480.678 97.6123Z" fill="#8D4848"/>
</g>
</svg>
