<svg width="121" height="301" viewBox="0 0 121 301" fill="none" xmlns="http://www.w3.org/2000/svg">
<g id="manafter">
<g id="Path 66">
<path d="M35.0661 5.89095C35.0661 5.89095 33.9434 1.94334 32.2563 0.953003V5.89095C32.2563 5.89095 25.52 4.90348 20.7482 9.83857L25.2391 10.826C25.2391 10.826 18.6426 12.9658 17.2395 22.1832L20.0492 20.8673L27.6279 36.6686L32.3998 28.1097L41.9412 37.6561L39.6957 32.3892L43.3448 34.0352L40.8184 29.7557L52.0463 34.6937L51.2039 32.0619L55.3178 38.7992C55.3178 38.7992 69.449 24.4905 54.0107 9.3477C54.0125 9.3477 46.9951 2.10525 35.0661 5.89095Z" fill="#2F2E41"/>
<path d="M34.5852 6.02786L34.7261 6.52341L35.2173 6.36753C41.0561 4.51459 45.6713 5.36355 48.8219 6.66197C50.4008 7.31262 51.6155 8.07789 52.4329 8.67822C52.8415 8.97824 53.1501 9.23659 53.3547 9.41801C53.4419 9.49531 53.5101 9.55858 53.5591 9.60508L53.6606 9.70465C57.4628 13.4341 59.4209 17.0878 60.2422 20.4563C61.0639 23.8265 60.7555 26.9441 59.9738 29.6114C59.1913 32.2816 57.9356 34.4954 56.8724 36.0438C56.3414 36.8171 55.8602 37.4218 55.5133 37.8317C55.4724 37.88 55.4334 37.9256 55.3964 37.9684L51.6306 31.8014L50.7277 32.2143L51.2318 33.7893L41.0197 29.298L39.5986 28.673L40.3879 30.0099L42.1121 32.9306L39.9013 31.9334L38.7332 31.4065L39.2358 32.5853L40.4675 35.4744L32.7534 27.7563L32.2854 27.2881L31.963 27.8663L27.6613 35.582L20.5001 20.6511L20.2858 20.2044L19.8372 20.4145L17.8991 21.3221C18.6937 17.3835 20.4826 14.9153 22.1049 13.4152C22.9815 12.6046 23.814 12.0726 24.4234 11.7447C24.728 11.5808 24.9762 11.4681 25.1456 11.3973C25.2303 11.362 25.2952 11.3371 25.3375 11.3215C25.3586 11.3137 25.374 11.3083 25.3835 11.305L25.3931 11.3018L25.3933 11.3017L25.3938 11.3015L25.3941 11.3014L25.3944 11.3013L27.1455 10.7333L25.3464 10.3377L21.7696 9.55121C23.9149 7.64395 26.3705 6.83236 28.3718 6.50765C29.4762 6.32846 30.4362 6.29871 31.1183 6.31365C31.459 6.32111 31.7295 6.33971 31.9129 6.35616C32.0046 6.36439 32.0744 6.37207 32.1203 6.37754C32.1432 6.38028 32.1602 6.38247 32.1708 6.38389L32.1821 6.38543L32.1838 6.38567L32.1841 6.38571L32.1842 6.38572L32.1843 6.38574L32.7563 6.46959V5.89095V2.09488C32.8354 2.19621 32.9141 2.30525 32.9922 2.42135C33.3126 2.89786 33.5976 3.45559 33.8366 3.99571C34.0749 4.53406 34.2627 5.04412 34.3911 5.42019C34.4552 5.60788 34.5041 5.76133 34.5369 5.86718C34.5532 5.92008 34.5655 5.96104 34.5736 5.98837L34.5826 6.01891L34.5847 6.02612L34.5851 6.02763L34.5851 6.02773L34.5852 6.02784L34.5852 6.02786Z" stroke="#100F0F" stroke-opacity="0.42"/>
</g>
<g id="Path 67">
<path d="M33.7701 41.047C33.7701 41.047 37.9543 56.5881 36.6969 58.6328C35.4395 60.6776 48.8314 71.72 48.8314 71.72L61.803 69.2662L62.6401 51.6804C62.6401 51.6804 50.9235 41.8652 53.4347 34.5037L33.7701 41.047Z" fill="#FFB9B9"/>
<path d="M52.7153 35.2701C52.3846 36.9831 52.6957 38.764 53.3464 40.4713C54.116 42.4903 55.3769 44.4513 56.7005 46.1589C58.0264 47.8695 59.4293 49.3438 60.4991 50.3893C61.0345 50.9126 61.4877 51.3297 61.8078 51.6166C61.938 51.7333 62.0462 51.8285 62.1291 51.9006L61.3224 68.8483L48.9697 71.185C48.8742 71.1054 48.7428 70.9956 48.5803 70.8589C48.218 70.5541 47.7014 70.1162 47.0854 69.5842C45.8528 68.5199 44.2242 67.081 42.6361 65.5798C41.0448 64.0756 39.5077 62.5214 38.45 61.2243C37.9188 60.573 37.5266 60.0081 37.3056 59.5607C37.1949 59.3368 37.1389 59.1652 37.1204 59.0425C37.1115 58.9831 37.1128 58.9439 37.1161 58.9209C37.1177 58.9097 37.1196 58.9028 37.1209 58.8993L37.1223 58.8957L37.1228 58.8947C37.2495 58.6887 37.3209 58.4366 37.3642 58.1821C37.4085 57.9211 37.429 57.621 37.4321 57.2949C37.4383 56.6426 37.3752 55.8431 37.2663 54.9611C37.0481 53.1947 36.6394 51.0436 36.1939 48.9682C35.7479 46.8904 35.2627 44.8781 34.8893 43.3859C34.7025 42.6396 34.5435 42.0229 34.4312 41.5925C34.4104 41.5129 34.3912 41.4396 34.3738 41.3731L52.7153 35.2701Z" stroke="#100F0F" stroke-opacity="0.42"/>
</g>
<g id="Path 68" opacity="0.1">
<path d="M33.7701 41.047C33.7701 41.047 37.9543 56.5881 36.6969 58.6328C35.4395 60.6776 48.8314 71.72 48.8314 71.72L61.803 69.2662L62.6401 51.6804C62.6401 51.6804 50.9235 41.8652 53.4347 34.5037L33.7701 41.047Z" fill="black"/>
<path d="M52.7153 35.2701C52.3846 36.9831 52.6957 38.764 53.3464 40.4713C54.116 42.4903 55.3769 44.4513 56.7005 46.1589C58.0264 47.8695 59.4293 49.3438 60.4991 50.3893C61.0345 50.9126 61.4877 51.3297 61.8078 51.6166C61.938 51.7333 62.0462 51.8285 62.1291 51.9006L61.3224 68.8483L48.9697 71.185C48.8742 71.1054 48.7428 70.9956 48.5803 70.8589C48.218 70.5541 47.7014 70.1162 47.0854 69.5842C45.8528 68.5199 44.2242 67.081 42.6361 65.5798C41.0448 64.0756 39.5077 62.5214 38.45 61.2243C37.9188 60.573 37.5266 60.0081 37.3056 59.5607C37.1949 59.3368 37.1389 59.1652 37.1204 59.0425C37.1115 58.9831 37.1128 58.9439 37.1161 58.9209C37.1177 58.9097 37.1196 58.9028 37.1209 58.8993L37.1223 58.8957L37.1228 58.8947C37.2495 58.6887 37.3209 58.4366 37.3642 58.1821C37.4085 57.9211 37.429 57.621 37.4321 57.2949C37.4383 56.6426 37.3752 55.8431 37.2663 54.9611C37.0481 53.1947 36.6394 51.0436 36.1939 48.9682C35.7479 46.8904 35.2627 44.8781 34.8893 43.3859C34.7025 42.6396 34.5435 42.0229 34.4312 41.5925C34.4104 41.5129 34.3912 41.4396 34.3738 41.3731L52.7153 35.2701Z" stroke="#100F0F" stroke-opacity="0.42"/>
</g>
<g id="Path 69">
<path d="M22.8906 139.202C22.8906 139.202 19.5429 159.651 22.0535 176.419C24.5641 193.186 25.8197 205.455 24.5641 207.909C23.3085 210.363 22.0535 209.954 22.8906 212.817C23.7276 215.68 25.4012 214.453 23.7276 217.315C22.0541 220.178 22.4726 225.086 22.4726 226.313C22.4726 227.539 20.3806 254.123 22.4726 256.986C24.5647 259.848 25.3994 259.439 25.3994 259.439L27.9101 274.162L41.3002 272.118L39.2081 258.621C39.2081 258.621 44.2293 256.167 42.1349 254.532C40.0405 252.896 38.7872 252.896 40.0428 252.896C41.2984 252.896 43.3905 252.487 41.7164 251.669C40.0422 250.851 41.2978 228.766 41.2978 228.766C41.2978 228.766 44.2247 188.278 55.943 189.505C67.6613 190.733 76.8673 214.453 76.8673 214.453L80.215 225.087C80.215 225.087 81.47 245.126 82.3071 246.762C83.1441 248.398 82.7256 248.807 82.3071 249.622C81.8885 250.438 78.9594 248.395 81.8885 251.667C84.8177 254.939 84.8153 256.166 84.8153 256.166L86.6984 277.637L100.302 269.258V256.579C100.302 256.579 102.812 252.49 101.975 249.218C101.138 245.946 101.138 230.405 101.975 227.543C102.812 224.68 102.394 223.862 101.557 222.635C100.72 221.408 98.6298 222.226 100.301 219.363C101.972 216.5 103.228 209.139 100.72 203.822C98.2113 198.505 84.4003 146.157 78.5426 143.292C72.6849 140.427 22.8906 139.202 22.8906 139.202Z" fill="#2F2E41"/>
<path d="M25.7799 258.696L25.8923 259.355L28.3203 273.594L40.7293 271.699L38.714 258.698L38.6576 258.334L25.7799 258.696ZM25.7799 258.696L25.2466 258.957C25.2056 258.952 25.1119 258.93 24.9594 258.847C24.5833 258.642 23.9038 258.097 22.8763 256.691C22.7977 256.583 22.7028 256.378 22.609 256.047C22.5176 255.724 22.4367 255.314 22.367 254.825C22.2276 253.848 22.1385 252.59 22.0898 251.141C21.9923 248.244 22.0572 244.629 22.1878 241.054C22.3183 237.481 22.5142 233.958 22.6775 231.25C22.7372 230.262 22.7929 229.377 22.8394 228.636C22.9195 227.364 22.9726 226.519 22.9726 226.313C22.9726 226.135 22.9652 225.9 22.9562 225.618C22.9316 224.845 22.8958 223.719 22.9717 222.458C23.0751 220.738 23.3842 218.894 24.1593 217.568C24.578 216.852 24.8279 216.327 24.9112 215.904C24.9553 215.679 24.9565 215.467 24.9025 215.262C24.849 215.058 24.7503 214.896 24.6472 214.762C24.5579 214.645 24.4613 214.541 24.3606 214.432C24.0332 214.079 23.6639 213.68 23.3705 212.677C23.1677 211.983 23.1061 211.534 23.1218 211.212C23.1364 210.91 23.2196 210.701 23.3616 210.482C23.4693 210.317 23.5934 210.168 23.7529 209.977C23.8392 209.874 23.9357 209.758 24.0457 209.621C24.3415 209.251 24.676 208.788 25.0092 208.137C25.2052 207.754 25.332 207.227 25.4153 206.606C25.4999 205.975 25.5446 205.207 25.5546 204.317C25.5745 202.537 25.4553 200.231 25.2193 197.489C24.7472 192.003 23.8038 184.732 22.548 176.345C21.3007 168.014 21.5072 158.752 22.0293 151.559C22.29 147.965 22.6291 144.894 22.9028 142.722C23.0397 141.636 23.1602 140.775 23.2464 140.186C23.2734 140.001 23.2971 139.843 23.3168 139.714L23.438 139.717C23.8038 139.726 24.3413 139.741 25.0274 139.76C26.3997 139.8 28.3668 139.859 30.7457 139.938C35.5038 140.098 41.9081 140.34 48.4948 140.672C55.0826 141.004 61.8476 141.425 67.3288 141.942C70.07 142.2 72.4836 142.482 74.3905 142.787C76.3204 143.096 77.6672 143.42 78.3229 143.741C78.5865 143.87 78.927 144.171 79.3354 144.693C79.7363 145.206 80.1717 145.893 80.6362 146.738C81.565 148.428 82.5861 150.707 83.662 153.397C85.8128 158.773 88.1622 165.737 90.4107 172.79C92.2345 178.51 93.9893 184.28 95.5156 189.299C95.8707 190.467 96.2134 191.594 96.5417 192.67C97.4112 195.52 98.1804 198.016 98.811 199.966C99.4375 201.904 99.9374 203.336 100.267 204.035C101.473 206.591 101.784 209.667 101.579 212.476C101.373 215.293 100.654 217.767 99.8692 219.111C99.4442 219.839 99.2109 220.408 99.1759 220.872C99.1574 221.117 99.1929 221.346 99.2942 221.553C99.3945 221.758 99.5422 221.906 99.6925 222.016C99.8383 222.123 99.9993 222.203 100.14 222.269C100.206 222.3 100.264 222.325 100.318 222.35C100.396 222.385 100.468 222.417 100.553 222.458C100.811 222.584 101.007 222.716 101.144 222.917C101.557 223.523 101.812 223.953 101.899 224.548C101.988 225.157 101.907 225.995 101.495 227.402C101.267 228.183 101.109 229.75 101.005 231.65C100.9 233.572 100.847 235.894 100.847 238.227C100.847 240.559 100.9 242.907 101.005 244.88C101.109 246.836 101.267 248.469 101.491 249.342C101.871 250.829 101.495 252.551 100.983 253.954C100.73 254.646 100.451 255.24 100.236 255.662C100.128 255.872 100.037 256.038 99.9729 256.151C99.941 256.207 99.9159 256.25 99.8992 256.278L99.8806 256.309L99.8763 256.317L99.8755 256.318M25.7799 258.696L99.8755 256.318M38.9886 258.172L38.9885 258.172L38.9886 258.172ZM38.9886 258.172L38.9887 258.172L38.9907 258.171L38.9998 258.166L39.038 258.147C39.072 258.13 39.1225 258.104 39.1864 258.07C39.3145 258.003 39.4961 257.904 39.708 257.78C40.1344 257.532 40.6713 257.189 41.1391 256.804C41.6218 256.407 41.9666 256.015 42.0943 255.682C42.1531 255.528 42.1568 255.41 42.1293 255.313C42.1016 255.215 42.0264 255.081 41.8272 254.926C40.8221 254.141 40.0222 253.75 39.615 253.551L39.613 253.55L39.598 253.542C39.5071 253.498 39.4136 253.452 39.3475 253.413L39.3469 253.413C39.3204 253.398 39.2476 253.355 39.1849 253.288C39.1556 253.257 39.0762 253.166 39.0499 253.023C39.0154 252.835 39.0893 252.668 39.1973 252.563C39.2808 252.482 39.3705 252.45 39.4052 252.438C39.4489 252.424 39.4882 252.417 39.5141 252.413C39.5662 252.405 39.621 252.401 39.6668 252.4C39.7586 252.396 39.8845 252.396 40.032 252.396H40.0428C40.5753 252.396 41.2244 252.317 41.6289 252.187C41.5902 252.165 41.5464 252.142 41.4968 252.118C41.2113 251.979 41.0599 251.683 40.9716 251.463C40.8711 251.212 40.7916 250.896 40.726 250.541C40.5943 249.827 40.5046 248.872 40.4454 247.772C40.3267 245.568 40.327 242.716 40.3794 239.902C40.4318 237.084 40.5366 234.294 40.6283 232.208C40.6741 231.165 40.7167 230.298 40.7478 229.691C40.7634 229.388 40.7761 229.15 40.7849 228.988L40.795 228.802L40.7977 228.754L40.7984 228.742L40.7986 228.739L40.7986 228.738C40.7986 228.738 40.7986 228.738 41.2978 228.766M38.9886 258.172L87.1257 276.786M87.1257 276.786L85.3145 256.135C85.3145 256.134 85.3144 256.133 85.3144 256.133C85.3141 256.127 85.3138 256.122 85.3134 256.116C85.3118 256.094 85.3092 256.068 85.3047 256.037C85.2959 255.974 85.2801 255.893 85.2521 255.791C85.1962 255.587 85.0914 255.299 84.8956 254.916C84.5048 254.151 83.7446 252.991 82.261 251.334C81.8528 250.878 81.5744 250.542 81.3909 250.298C81.4621 250.308 81.5361 250.318 81.6087 250.324C81.7706 250.338 81.9741 250.344 82.17 250.295C82.3793 250.243 82.6152 250.117 82.7519 249.851C82.7836 249.789 82.819 249.724 82.8559 249.656C83.0211 249.353 83.2192 248.99 83.2739 248.563C83.345 248.007 83.1889 247.387 82.7522 246.534C82.7301 246.491 82.6871 246.369 82.6326 246.135C82.581 245.914 82.5267 245.627 82.4704 245.281C82.3579 244.588 82.2413 243.681 82.1239 242.63C81.8894 240.529 81.6546 237.876 81.4455 235.271C81.2365 232.666 81.0536 230.112 80.923 228.209C80.8576 227.258 80.8054 226.469 80.7695 225.918C80.7515 225.643 80.7376 225.427 80.7282 225.28L80.7176 225.113L80.7149 225.07L80.7142 225.059L80.714 225.056L80.714 225.056C80.714 225.055 80.714 225.055 80.215 225.087L80.714 225.055L80.7102 224.994L80.6919 224.936L77.3442 214.303L77.3393 214.287L77.3334 214.272L76.8673 214.453C77.3334 214.272 77.3333 214.272 77.3332 214.272L77.3328 214.271L77.3314 214.267L77.3261 214.254L77.3054 214.201C77.2872 214.155 77.2602 214.087 77.2247 213.999C77.1535 213.823 77.0479 213.565 76.9095 213.237C76.6328 212.581 76.2249 211.644 75.6989 210.516C74.6473 208.262 73.1212 205.24 71.2246 202.176C69.3299 199.116 67.0549 195.997 64.5013 193.56C61.9531 191.128 59.0817 189.331 55.9951 189.008C52.7276 188.666 50.2013 191.246 48.2693 194.888C46.3148 198.572 44.8389 203.571 43.7377 208.568C42.6348 213.574 41.9005 218.614 41.4419 222.399C41.2125 224.293 41.0519 225.874 40.9486 226.983C40.897 227.537 40.8597 227.973 40.8352 228.271C40.823 228.42 40.814 228.535 40.8081 228.612L40.8014 228.7L40.7997 228.722L40.7993 228.728L40.7992 228.73C40.7991 228.73 40.7991 228.73 41.2978 228.766M87.1257 276.786L99.8016 268.978V256.579V256.438L99.8754 256.318L99.8754 256.318L99.8754 256.318L99.8755 256.318M87.1257 276.786L99.8755 256.318M41.2978 228.766L40.7991 228.73L40.7986 228.738L41.2978 228.766ZM41.8725 252.359C41.8724 252.359 41.8716 252.358 41.8705 252.356C41.872 252.358 41.8725 252.359 41.8725 252.359Z" stroke="#100F0F" stroke-opacity="0.42"/>
</g>
<g id="Path 70">
<path d="M41.3019 265.165C41.3019 265.165 31.678 263.529 31.2595 265.983C31.0297 268.022 31.0297 270.079 31.2595 272.118C31.2595 272.118 27.9118 272.527 28.3327 275.389C28.7536 278.252 29.1698 286.023 29.1698 286.023C29.1698 286.023 23.9395 298.088 26.8681 300.951C26.8974 300.979 32.6462 300.746 35.9506 300.746H47.9991C47.9991 300.746 49.6726 295.021 47.9991 294.203C46.3255 293.385 42.5593 286.022 42.9778 284.388C43.3964 282.754 42.9778 270.891 42.9778 270.891L41.1298 270.993L41.3019 265.165Z" fill="#3F3D56"/>
<path d="M29.1698 286.023C29.669 285.996 29.669 285.996 29.669 285.996L29.669 285.996L29.669 285.995L29.6687 285.99L29.6678 285.973L29.6642 285.908L29.6503 285.655C29.638 285.437 29.6201 285.122 29.5973 284.735C29.5516 283.96 29.4864 282.898 29.4079 281.746C29.2515 279.449 29.0412 276.771 28.8274 275.317C28.7374 274.705 28.851 274.257 29.0454 273.921C29.2445 273.576 29.5494 273.312 29.8913 273.111C30.2332 272.911 30.5935 272.785 30.8735 272.709C31.0122 272.671 31.128 272.647 31.2074 272.632C31.2456 272.625 31.2751 272.621 31.2946 272.618H31.819L31.7563 272.062C31.5313 270.066 31.5307 268.052 31.7545 266.056C31.7787 265.934 31.8608 265.803 32.0768 265.667C32.3071 265.523 32.6507 265.401 33.103 265.311C34.0046 265.131 35.1992 265.103 36.4169 265.154C37.627 265.204 38.828 265.33 39.7289 265.444C40.1653 265.499 40.5298 265.551 40.7892 265.59L40.6301 270.979L40.614 271.522L41.1574 271.493L42.4952 271.419C42.4952 271.419 42.4952 271.42 42.4953 271.421C42.5059 271.748 42.5206 272.217 42.5369 272.785C42.5695 273.921 42.6087 275.453 42.6348 277.035C42.661 278.618 42.674 280.248 42.6544 281.582C42.6447 282.25 42.6269 282.839 42.5989 283.309C42.5701 283.793 42.5323 284.112 42.4935 284.264C42.4133 284.577 42.4436 284.959 42.513 285.336C42.5853 285.728 42.7127 286.178 42.8776 286.658C43.2077 287.619 43.7021 288.741 44.2588 289.829C44.8156 290.918 45.4418 291.987 46.0401 292.841C46.339 293.268 46.6362 293.649 46.9191 293.954C47.1943 294.25 47.4866 294.509 47.7796 294.652C47.9507 294.736 48.1334 295.004 48.2087 295.63C48.2796 296.219 48.2337 296.962 48.1312 297.714C48.0296 298.459 47.8765 299.183 47.748 299.723C47.6993 299.928 47.6543 300.105 47.6174 300.246H35.9506C34.2901 300.246 32.0199 300.305 30.1664 300.359C29.6081 300.376 29.0852 300.392 28.6281 300.406C28.3272 300.415 28.0549 300.424 27.82 300.431C27.5226 300.44 27.2845 300.447 27.1203 300.45C27.1094 300.45 27.0989 300.451 27.0887 300.451C26.6169 299.865 26.4201 298.832 26.4916 297.436C26.5674 295.956 26.9356 294.22 27.4023 292.548C27.8678 290.88 28.4246 289.297 28.866 288.13C29.0865 287.546 29.2776 287.068 29.4135 286.736C29.4814 286.57 29.5354 286.441 29.5724 286.353C29.5908 286.31 29.605 286.276 29.6145 286.254L29.6252 286.229L29.6278 286.223L29.6284 286.222L29.6285 286.222L29.1698 286.023ZM29.1698 286.023L29.669 285.996L29.6753 286.114L29.6285 286.222L29.1698 286.023Z" stroke="#100F0F" stroke-opacity="0.42"/>
</g>
<g id="Path 71">
<path d="M90.2592 272.527L85.2379 276.208C85.2379 276.208 87.33 283.16 86.075 284.389C84.82 285.618 82.0998 299.726 84.6116 300.543C87.1234 301.361 102.604 300.134 102.604 300.134C102.604 300.134 119.97 300.747 120.388 299.93C120.806 299.112 121.643 294.204 116.622 292.568C111.601 290.933 108.672 291.342 106.998 286.434C105.325 281.525 101.558 274.165 101.558 274.165L100.721 265.167C100.721 265.167 95.7001 265.986 94.863 265.986C94.026 265.986 89.8418 268.03 90.2603 269.667C90.5149 270.604 90.5144 271.59 90.2592 272.527V272.527Z" fill="#3F3D56"/>
<path d="M102.604 300.134C102.565 299.636 102.565 299.636 102.565 299.636L102.564 299.636L102.562 299.636L102.554 299.637L102.521 299.639L102.392 299.649C102.278 299.658 102.111 299.671 101.897 299.687C101.47 299.719 100.856 299.763 100.112 299.814C98.6235 299.916 96.6133 300.044 94.5255 300.146C92.4366 300.248 90.2753 300.324 88.4826 300.324C87.5859 300.324 86.7875 300.305 86.1395 300.262C85.4777 300.217 85.0159 300.149 84.7664 300.068C84.6784 300.039 84.5206 299.918 84.3737 299.499C84.2328 299.098 84.1416 298.529 84.1034 297.82C84.0273 296.409 84.1664 294.567 84.426 292.689C84.6851 290.815 85.0606 288.93 85.4476 287.442C85.6412 286.698 85.8356 286.061 86.0169 285.578C86.1076 285.336 86.1922 285.141 86.2685 284.993C86.3492 284.837 86.4041 284.766 86.4248 284.746C86.6852 284.491 86.8178 284.134 86.8892 283.785C86.9625 283.426 86.9838 283.012 86.9735 282.58C86.9529 281.714 86.8031 280.699 86.618 279.742C86.4321 278.782 86.207 277.863 86.0288 277.186C85.9443 276.865 85.8702 276.597 85.8155 276.404L90.5548 272.93L90.2592 272.527L90.7416 272.658C91.0199 271.637 91.0207 270.562 90.744 269.54C90.7004 269.364 90.7615 269.096 91.0716 268.719C91.3724 268.352 91.8353 267.976 92.3638 267.631C92.8877 267.29 93.4509 266.996 93.93 266.79C94.1695 266.686 94.3821 266.607 94.5537 266.555C94.7379 266.499 94.836 266.486 94.863 266.486C95.1118 266.486 95.6185 266.429 96.1961 266.354C96.7894 266.276 97.4992 266.173 98.1804 266.071C98.8621 265.968 99.5173 265.866 100.002 265.789C100.1 265.774 100.19 265.759 100.273 265.746L101.061 274.211L101.069 274.307L101.113 274.392L101.558 274.165L101.113 274.392L101.113 274.393L101.114 274.394L101.116 274.397L101.124 274.413L101.155 274.475C101.183 274.53 101.224 274.611 101.277 274.715C101.383 274.925 101.536 275.231 101.725 275.613C102.103 276.377 102.624 277.448 103.198 278.671C104.347 281.122 105.697 284.168 106.525 286.595C106.958 287.866 107.483 288.822 108.124 289.561C108.768 290.302 109.511 290.802 110.347 291.183C111.174 291.56 112.101 291.825 113.107 292.093C113.273 292.138 113.443 292.182 113.615 292.228C114.489 292.458 115.432 292.707 116.467 293.044C118.797 293.803 119.729 295.291 120.058 296.672C120.226 297.375 120.239 298.06 120.184 298.616C120.14 299.063 120.056 299.398 119.991 299.584C119.991 299.584 119.99 299.584 119.989 299.584C119.873 299.615 119.693 299.647 119.444 299.677C118.951 299.736 118.255 299.778 117.416 299.807C115.741 299.864 113.54 299.864 111.345 299.839C109.152 299.813 106.971 299.762 105.338 299.717C104.522 299.695 103.842 299.674 103.367 299.659C103.13 299.652 102.943 299.645 102.816 299.641L102.672 299.636L102.634 299.635L102.625 299.635L102.623 299.634L102.622 299.634C102.622 299.634 102.622 299.634 102.604 300.134ZM102.604 300.134L102.622 299.634L102.593 299.633L102.565 299.636L102.604 300.134Z" stroke="#100F0F" stroke-opacity="0.42"/>
</g>
<g id="Ellipse 12">
<path d="M40.8834 46.1612C50.474 46.1612 58.2487 38.5624 58.2487 29.1887C58.2487 19.8151 50.474 12.2163 40.8834 12.2163C31.2928 12.2163 23.5181 19.8151 23.5181 29.1887C23.5181 38.5624 31.2928 46.1612 40.8834 46.1612Z" fill="#FFB9B9"/>
<path d="M57.7487 29.1887C57.7487 38.2755 50.2087 45.6612 40.8834 45.6612C31.5581 45.6612 24.0181 38.2755 24.0181 29.1887C24.0181 20.102 31.5581 12.7163 40.8834 12.7163C50.2087 12.7163 57.7487 20.102 57.7487 29.1887Z" stroke="#100F0F" stroke-opacity="0.42"/>
</g>
<g id="Path 72">
<path d="M52.1815 58.226L58.4583 47.5034C58.4583 47.5034 73.1034 46.7745 73.9405 48.4108C74.7776 50.047 81.8908 131.025 81.8908 131.025C81.8908 131.025 85.2385 135.523 83.1459 138.386L81.0538 141.247V146.972C81.0538 146.972 70.5928 155.154 56.3662 153.516C42.1396 151.878 24.1468 144.519 24.1468 144.519L27.913 121.616L27.4944 54.136L35.9237 50.1197C35.9237 50.1197 45.4855 56.5898 47.1591 58.6345C48.8326 60.6793 52.1815 58.226 52.1815 58.226Z" fill="#325E33"/>
<path d="M52.1815 58.226L52.4769 58.6294L52.5606 58.5681L52.613 58.4786L58.7527 47.9902C58.8485 47.986 58.9685 47.9807 59.11 47.9748C59.5106 47.9582 60.0841 47.9362 60.7751 47.9148C62.1576 47.8722 64.0078 47.8324 65.8825 47.8435C67.7605 47.8546 69.6494 47.9168 71.1143 48.0758C71.8491 48.1555 72.4575 48.2576 72.8981 48.3829C73.119 48.4457 73.2796 48.5094 73.3871 48.5687C73.4486 48.6026 73.4791 48.6276 73.4921 48.6396C73.4942 48.6469 73.4966 48.656 73.4995 48.6675C73.5121 48.7174 73.5276 48.7889 73.5456 48.8845C73.5816 49.0752 73.6242 49.3406 73.6728 49.6793C73.7699 50.3555 73.8886 51.3039 74.0258 52.4879C74.2999 54.8548 74.6461 58.1492 75.0384 62.0594C75.8227 69.8791 76.7902 80.153 77.7317 90.3771C78.6731 100.601 79.5884 110.774 80.2683 118.391C80.6083 122.199 80.8894 125.369 81.0855 127.586C81.1836 128.695 81.2604 129.565 81.3127 130.159L81.3723 130.836L81.3876 131.01L81.3915 131.054L81.3924 131.065L81.3927 131.067C81.3927 131.068 81.3928 131.068 81.8908 131.025L81.3928 131.068L81.4052 131.209L81.4895 131.323L81.4896 131.323L81.4896 131.323L81.4897 131.323L81.4907 131.324L81.4964 131.332L81.5209 131.366C81.5429 131.397 81.5757 131.444 81.6171 131.505C81.7002 131.627 81.8177 131.806 81.953 132.03C82.2243 132.481 82.5627 133.106 82.837 133.813C83.3988 135.26 83.6288 136.878 82.7423 138.091C82.7423 138.091 82.7422 138.091 82.7422 138.091L80.6502 140.951L80.5538 141.083V141.247V146.722C80.484 146.773 80.3956 146.837 80.289 146.912C79.9827 147.127 79.5269 147.434 78.9346 147.799C77.7498 148.53 76.0207 149.489 73.8518 150.397C69.512 152.215 63.428 153.825 56.4234 153.019C49.3602 152.206 41.3429 149.969 35.0764 147.928C31.9464 146.908 29.2597 145.939 27.3559 145.226C26.4041 144.869 25.6482 144.576 25.1307 144.373C24.9635 144.307 24.8212 144.251 24.7052 144.204L28.4064 121.697L28.4132 121.655L28.413 121.613L27.9964 54.4506L35.8798 50.6945C35.9308 50.7293 35.9897 50.7694 36.0557 50.8145C36.3197 50.9949 36.6989 51.2551 37.1593 51.5737C38.0802 52.2111 39.325 53.0819 40.6215 54.016C41.9187 54.9507 43.2641 55.9463 44.3875 56.8338C45.5257 57.7329 46.3936 58.4887 46.7721 58.9512C47.8188 60.23 49.3646 60.0445 50.4596 59.6702C51.024 59.4772 51.5259 59.2178 51.8836 59.0095C52.0635 58.9048 52.2094 58.8115 52.3112 58.7438C52.3622 58.7099 52.4023 58.6822 52.4303 58.6626L52.4631 58.6394L52.4725 58.6326L52.4753 58.6306L52.4763 58.6299L52.4766 58.6296C52.4768 58.6295 52.4769 58.6294 52.1815 58.226Z" stroke="#100F0F" stroke-opacity="0.42"/>
</g>
<g id="Path 73">
<path d="M37.5357 58.226L35.6526 47.3884L9.91842 65.1813L24.1427 106.079C24.1427 106.079 15.3552 121.62 17.0294 127.345C18.7035 133.071 19.54 141.659 19.54 141.659C19.54 141.659 42.1349 147.385 41.717 144.52C41.299 141.655 41.717 128.979 41.717 128.979C41.717 128.979 49.034 76.0155 45.3749 67.9389C41.7158 59.8623 37.5357 58.226 37.5357 58.226Z" fill="#E6E6E6"/>
<path d="M41.717 128.979C41.2173 128.962 41.2172 128.962 41.2172 128.962L41.2172 128.963L41.2172 128.965L41.2169 128.972L41.2161 128.999L41.2126 129.106C41.2097 129.2 41.2054 129.338 41.2001 129.514C41.1894 129.867 41.1747 130.374 41.1584 130.991C41.1257 132.225 41.0865 133.901 41.0603 135.667C41.0086 139.16 41.006 143.077 41.2195 144.573C41.1677 144.614 41.0395 144.678 40.7843 144.729C40.2749 144.833 39.482 144.849 38.4606 144.783C36.4338 144.651 33.674 144.209 30.8794 143.673C28.09 143.138 25.2856 142.513 23.1774 142.022C22.1236 141.777 21.2444 141.565 20.6289 141.414C20.3714 141.351 20.1601 141.299 20.0015 141.259C20.0003 141.248 19.9992 141.237 19.998 141.226C19.9716 140.979 19.9322 140.619 19.8797 140.17C19.7747 139.271 19.6172 138.014 19.4072 136.577C18.988 133.708 18.3564 130.102 17.5093 127.205C17.1316 125.913 17.3329 123.984 17.9184 121.733C18.4977 119.506 19.4283 117.052 20.4172 114.763C21.4051 112.476 22.4459 110.365 23.2402 108.826C23.6371 108.056 23.9722 107.43 24.2077 106.996C24.3254 106.78 24.4183 106.611 24.4816 106.497C24.5132 106.44 24.5375 106.397 24.5537 106.368L24.572 106.335L24.5766 106.327L24.5776 106.325L24.5779 106.325L24.1427 106.079L24.5779 106.325L24.6892 106.128L24.6149 105.914L10.5156 65.3762L35.2938 48.2443L37.0431 58.3116L37.0913 58.589L37.3515 58.6908L37.3517 58.6909L37.3518 58.691L37.3524 58.6912L37.3529 58.6914L37.3555 58.6925C37.3602 58.6944 37.3687 58.6981 37.3811 58.7035C37.4058 58.7145 37.4456 58.7328 37.4995 58.7596C37.6072 58.8133 37.771 58.9011 37.9818 59.0323C38.4032 59.2947 39.0135 59.7314 39.7399 60.4173C41.1917 61.7881 43.1147 64.1618 44.9194 68.1452C45.3362 69.0651 45.6194 70.6954 45.7694 72.9143C45.918 75.1131 45.9327 77.8268 45.8472 80.8696C45.6763 86.954 45.1059 94.3186 44.4204 101.44C43.735 108.559 42.9353 115.427 42.3069 120.516C41.9926 123.06 41.7213 125.159 41.5285 126.622C41.4321 127.353 41.3554 127.926 41.3028 128.315C41.2765 128.51 41.2562 128.659 41.2425 128.759L41.2269 128.872L41.223 128.901L41.222 128.908L41.2218 128.91C41.2217 128.91 41.2217 128.91 41.717 128.979ZM41.717 128.979L41.2173 128.962L41.2181 128.936L41.2217 128.91L41.717 128.979Z" stroke="#100F0F" stroke-opacity="0.42"/>
</g>
<g id="Path 74">
<path d="M60.5498 52.9093L56.5746 45.3431C56.5746 45.1062 84.8177 48.9245 86.0768 51.2731L82.7274 114.255C82.7274 114.255 83.1459 123.252 85.238 125.706C87.33 128.16 86.9115 132.25 86.075 132.659C85.2385 133.068 71.4299 137.157 71.4299 137.157C71.4299 137.157 58.0397 114.664 59.2953 87.6689C60.5509 60.6741 60.5498 52.9093 60.5498 52.9093Z" fill="#E6E6E6"/>
<path d="M60.5498 52.9093L61.0498 52.9093L61.0498 52.786L60.9924 52.6768L57.4306 45.8974C57.525 45.9074 57.6266 45.9184 57.7352 45.9305C58.5046 46.0162 59.6085 46.1545 60.9401 46.3349C63.6028 46.6956 67.1672 47.2233 70.7703 47.8316C74.3754 48.4402 78.0103 49.128 80.8181 49.8084C82.2238 50.149 83.4087 50.4846 84.2748 50.8035C84.7089 50.9633 85.0484 51.1137 85.2909 51.2515C85.4117 51.3202 85.4993 51.3807 85.5593 51.4312C85.5621 51.4335 85.5647 51.4358 85.5673 51.438L82.2281 114.229L82.2267 114.254L82.2279 114.279L82.7274 114.255C82.2279 114.279 82.2279 114.279 82.2279 114.279L82.2279 114.279L82.228 114.281L82.2282 114.286L82.2292 114.306L82.2333 114.384C82.2369 114.452 82.2425 114.551 82.2504 114.678C82.2661 114.931 82.2908 115.296 82.3271 115.74C82.3996 116.629 82.5183 117.841 82.7032 119.131C82.8878 120.42 83.14 121.799 83.4817 123.017C83.8185 124.217 84.26 125.33 84.8575 126.031C85.8078 127.145 86.2055 128.659 86.2551 129.968C86.2797 130.619 86.2171 131.196 86.1073 131.619C86.0522 131.832 85.9891 131.991 85.929 132.098C85.8828 132.181 85.8517 132.209 85.8469 132.213C85.7685 132.249 85.5042 132.344 85.0489 132.495C84.5951 132.644 83.99 132.837 83.2848 133.057C81.8749 133.497 80.0722 134.046 78.2943 134.583C76.5167 135.119 74.765 135.643 73.4577 136.033C72.8041 136.227 72.2616 136.389 71.8825 136.501L71.666 136.566C71.573 136.401 71.4483 136.178 71.2961 135.899C70.9356 135.237 70.4209 134.259 69.8066 133.001C68.5777 130.485 66.951 126.847 65.363 122.369C62.1858 113.409 59.171 101.104 59.7948 87.6922C60.4227 74.1926 60.7364 65.4998 60.8932 60.1808C60.9716 57.5213 61.0107 55.705 61.0303 54.5529C61.04 53.9768 61.0449 53.5667 61.0474 53.3003C61.0486 53.1671 61.0492 53.0697 61.0495 53.0055L61.0497 52.9336L61.0498 52.9156L61.0498 52.911L61.0498 52.9098V52.9094C61.0498 52.9093 61.0498 52.9093 60.5498 52.9093Z" stroke="#100F0F" stroke-opacity="0.42"/>
</g>
<g id="Path 75">
<path d="M81.0538 51.6821L85.4856 50.7599C87.2202 51.7137 88.5992 53.1825 89.4227 54.9535C90.6783 57.8141 105.323 88.4894 105.323 90.5341C105.323 92.5789 105.742 107.711 96.536 107.711C87.33 107.711 80.2167 69.2673 80.2167 69.2673L81.0538 51.6821Z" fill="#E6E6E6"/>
<path d="M85.4037 51.2876C86.9701 52.1911 88.2142 53.5429 88.9671 55.1595C89.2579 55.8213 90.2452 57.9302 91.5949 60.813C93.2013 64.244 95.3208 68.7712 97.3899 73.2591C99.2986 77.3993 101.167 81.5107 102.557 84.7134C103.252 86.3154 103.826 87.6854 104.225 88.7161C104.425 89.2321 104.579 89.6571 104.682 89.9807C104.734 90.1428 104.771 90.2737 104.795 90.3746C104.806 90.4249 104.814 90.4642 104.819 90.4937C104.823 90.5247 104.823 90.5365 104.823 90.5341C104.823 90.6058 104.824 90.6928 104.825 90.794C104.832 92.1538 104.854 96.0725 103.898 99.7639C103.384 101.747 102.599 103.619 101.415 104.987C100.245 106.339 98.6786 107.211 96.536 107.211C95.568 107.211 94.5688 106.706 93.5411 105.701C92.5159 104.699 91.5107 103.246 90.5415 101.465C88.6044 97.9056 86.8638 93.1385 85.4024 88.3433C83.9427 83.5539 82.769 78.7614 81.9598 75.1644C81.5554 73.3664 81.2423 71.8683 81.0305 70.8201C80.9245 70.2961 80.8439 69.8845 80.7898 69.6043C80.7628 69.4642 80.7424 69.3569 80.7287 69.2848L80.7189 69.2328L81.5348 52.0928L85.4037 51.2876Z" stroke="#100F0F" stroke-opacity="0.42"/>
</g>
<g id="Path 76">
<path d="M18.2879 157.606L25.8197 168.648L30.0039 154.745L27.0771 150.656L18.2879 157.606Z" fill="#FFB9B9"/>
<path d="M18.9635 157.709L26.9758 151.373L29.4543 154.836L25.6427 167.501L18.9635 157.709Z" stroke="#100F0F" stroke-opacity="0.42"/>
</g>
<g id="Path 77">
<path d="M13.6846 65.5869L9.91898 65.1784L0.713013 113.437L16.6138 161.695L30.4224 151.471L20.7985 119.162L24.1456 94.2151L13.6846 65.5869Z" fill="#E6E6E6"/>
<path d="M20.3029 119.096L20.2887 119.202L20.3193 119.305L29.8432 151.278L16.8722 160.882L1.22842 113.403L10.3237 65.7252L13.3217 66.0505L23.6336 94.2709L20.3029 119.096Z" stroke="#100F0F" stroke-opacity="0.42"/>
</g>
<g id="Path 78">
<path d="M59.0126 24.4001C56.7133 16.2085 49.5228 10.2299 41.0028 10.2299C38.0319 10.2597 35.1128 10.9946 32.4968 12.3713C29.8809 13.748 27.6463 15.7253 25.9854 18.1331L30.2819 26.1805L34.5662 19.2774L43.1341 26.9769L41.1181 22.729L44.3962 24.0563L42.1279 20.6047L52.2078 24.5872L51.4515 22.4629L56.2398 28.5697C57.3527 27.3088 58.2855 25.9062 59.0126 24.4001V24.4001Z" fill="#2F2E41"/>
<path d="M41.0053 10.7299C49.2157 10.7311 56.1799 16.4509 58.4791 24.3529C57.8733 25.5741 57.1275 26.724 56.2562 27.7803L51.845 22.1544L50.9805 22.6306L51.3674 23.7176L42.3116 20.1397L40.8426 19.5592L41.71 20.8793L43.0979 22.9912L41.3058 22.2655L40.1161 21.7838L40.6664 22.9433L41.6129 24.9376L34.9004 18.9055L34.4562 18.5063L34.1413 19.0137L30.3145 25.1799L26.5713 18.1689C28.1665 15.9405 30.2749 14.1056 32.7297 12.8138C35.2743 11.4746 38.1143 10.7593 41.0053 10.7299Z" stroke="#100F0F" stroke-opacity="0.42"/>
</g>
<g id="Path 79" opacity="0.1">
<path d="M78.3336 71.5175L89.6082 81.1251L83.7734 68.6529L78.3336 71.5175Z" fill="black"/>
<path d="M83.5426 69.3395L88.1792 79.2504L79.2199 71.6158L83.5426 69.3395Z" stroke="#100F0F" stroke-opacity="0.42"/>
</g>
<g id="Path 81">
<path d="M73.5214 70.086C73.5214 70.086 68.0816 53.7269 61.3868 56.5898C54.6921 59.4527 63.8975 76.6294 63.8975 76.6294L69.7557 80.3104L73.5214 70.086Z" fill="#FFB9B9"/>
<path d="M72.9908 70.0799L69.4997 79.559L64.277 76.2774C64.2659 76.2561 64.2533 76.232 64.2393 76.2051C64.1745 76.0805 64.08 75.8967 63.9618 75.6614C63.7254 75.1905 63.3946 74.5138 63.0183 73.6925C62.2648 72.0481 61.3323 69.8321 60.6085 67.533C59.8818 65.2247 59.3793 62.8746 59.4544 60.9482C59.5294 59.0241 60.1664 57.6555 61.5834 57.0495C63.0324 56.4299 64.4349 56.8215 65.7999 57.8852C67.1773 58.9586 68.4467 60.6712 69.5337 62.518C70.616 64.3566 71.4951 66.2888 72.1046 67.7654C72.409 68.5028 72.6452 69.1243 72.8051 69.5607C72.885 69.7789 72.9458 69.9507 72.9864 70.0674C72.9879 70.0717 72.9894 70.0758 72.9908 70.0799Z" stroke="#100F0F" stroke-opacity="0.42"/>
</g>
<g id="Path 82">
<path d="M102.394 90.9437L73.1028 68.4503L62.6419 83.5829C62.6419 83.5829 90.2586 112.211 96.5342 106.485C102.81 100.76 102.394 90.9437 102.394 90.9437Z" fill="#E6E6E6"/>
<path d="M63.287 83.5289L73.2152 69.1671L101.899 91.1941C101.899 91.2462 101.9 91.3067 101.899 91.3751C101.898 91.6465 101.89 92.043 101.862 92.5377C101.804 93.5279 101.662 94.9078 101.328 96.4624C100.659 99.5806 99.2273 103.351 96.1972 106.116C95.5738 106.685 94.6408 106.874 93.3615 106.652C92.0831 106.431 90.5447 105.811 88.829 104.883C85.4026 103.028 81.393 100.013 77.5558 96.798C73.7237 93.5875 70.0847 90.1967 67.4023 87.6069C66.0616 86.3123 64.9607 85.2188 64.1953 84.4492C63.8126 84.0644 63.5138 83.7607 63.3109 83.5533C63.3028 83.545 63.2948 83.5369 63.287 83.5289Z" stroke="#100F0F" stroke-opacity="0.42"/>
</g>
</g>
</svg>
