<svg width="100" height="300" viewBox="0 0 100 300" fill="none" xmlns="http://www.w3.org/2000/svg">
<g id="manbefore">
<path id="Vector" d="M76.8872 262.734C76.8872 262.734 80.5888 275.71 83.0566 279.059C85.5244 282.408 87.5808 287.85 86.347 288.687C85.1131 289.524 82.6453 299.57 85.9357 299.989C89.226 300.407 96.6293 289.105 97.0406 285.338C97.4519 281.571 99.0971 268.176 99.0971 268.176C99.0971 268.176 101.976 256.455 97.452 255.618C92.9277 254.781 85.9357 254.362 85.9357 254.362L76.8872 262.734Z" fill="#2F2E41"/>
<path id="Vector_2" d="M59.6128 276.548C59.6128 276.548 54.2659 290.78 53.0321 291.617C51.7982 292.454 47.2739 299.989 56.3224 299.989C65.3709 299.989 70.3064 297.477 70.3064 297.477L73.1855 294.128C73.1855 294.128 73.1855 285.338 72.3629 284.082C71.5404 282.826 72.3629 276.548 72.3629 276.548H59.6128Z" fill="#2F2E41"/>
<path id="Vector_3" d="M23.0075 146.366C23.0075 146.366 16.4268 191.574 22.1849 206.225C27.943 220.875 33.7012 225.061 33.7012 225.061L77.2984 266.501C77.2984 266.501 90.8712 259.385 89.6373 254.781C89.6373 254.781 86.7583 253.107 86.347 251.851C85.9357 250.595 80.5888 250.177 80.5888 250.177C80.5888 250.177 78.121 247.246 78.121 245.572C78.121 243.898 56.7337 214.178 49.7417 212.085C49.7417 212.085 46.04 207.48 46.4513 206.643C46.8626 205.806 45.2174 202.876 45.2174 202.876L49.3304 186.551L75.242 182.365C75.242 182.365 85.9357 143.855 76.8872 140.925C67.8386 137.994 23.0075 146.366 23.0075 146.366Z" fill="#2F2E41"/>
<path id="Vector_4" d="M74.4194 175.667L75.242 182.365C75.242 182.365 75.242 199.946 74.4194 201.62C73.5968 203.294 73.1855 205.806 74.4194 207.48C75.6533 209.155 77.7098 213.341 76.8872 215.015C76.0646 216.689 78.5323 263.99 75.242 267.339C71.9517 270.687 73.1856 274.873 73.5969 275.292C74.0082 275.71 73.1856 277.385 73.1856 277.385C73.1856 277.385 56.3225 280.315 57.5563 277.385C58.7902 274.455 58.7902 272.78 59.6128 271.943C60.4354 271.106 59.6128 269.85 59.6128 269.85C59.6128 269.85 60.8467 256.455 59.6128 255.618C58.3789 254.781 54.6772 214.596 54.6772 214.178C54.6772 213.759 53.4434 212.922 53.4434 211.248C53.4434 209.573 53.4434 204.132 51.3869 203.294C49.3304 202.457 49.7417 181.946 49.7417 181.946L74.4194 175.667Z" fill="#2F2E41"/>
<path id="Vector_5" d="M45.2174 26.2309C45.2174 26.2309 46.8626 38.7886 51.7982 41.3001C56.7337 43.8117 60.0241 45.0674 60.0241 45.0674L55.9111 59.7181L54.266 72.2758H35.3463L25.064 63.904L28.3544 50.0905L29.9995 47.579C29.9995 47.579 32.056 38.37 30.4108 35.4399C28.7656 32.5097 45.2174 26.2309 45.2174 26.2309Z" fill="#FFB9B9"/>
<path id="Vector_6" d="M36.9915 56.788L39.8706 62.2296C39.8706 62.2296 41.9271 54.695 44.8062 53.4392C47.6852 52.1835 54.6772 50.0905 54.6772 48.4162C54.6772 46.7418 54.2659 42.5559 55.9111 42.5559C57.5563 42.5559 73.5968 47.579 76.0646 49.2533C78.5324 50.9277 78.9437 52.6021 78.9437 52.6021L74.4194 100.74C74.4194 100.74 81.0001 123.344 78.9437 132.134C76.8872 140.925 75.242 142.18 70.3064 143.436C65.3709 144.692 68.25 140.506 53.8546 144.692C39.4593 148.878 30.4108 147.622 27.1205 147.622C23.8301 147.622 21.7736 149.296 20.951 149.715C20.1284 150.134 20.5397 147.622 23.4188 143.855C26.2979 140.087 25.064 133.809 25.064 133.809C25.064 133.809 21.7736 122.925 23.8301 118.739C25.8865 114.553 28.7656 109.112 26.2979 107.437C23.8301 105.763 20.5397 93.2053 20.5397 93.2053L11.4912 60.5553L29.9995 47.579C29.9995 47.579 29.1769 53.4392 32.056 54.695C34.935 55.9508 36.9915 56.788 36.9915 56.788Z" fill="#575A89"/>
<path id="Vector_7" d="M13.959 60.1367H11.4912C11.4912 60.1367 7.3783 67.2527 7.3783 72.2758C7.3783 77.2988 9.43476 105.763 9.43476 105.763L21.3623 118.321L24.2414 108.693L25.064 87.345L13.959 60.1367Z" fill="#575A89"/>
<path id="Vector_8" d="M20.5397 104.507C20.5397 104.507 6.967 100.74 7.37829 106.6C7.78958 112.46 9.84604 119.576 16.4268 121.251C23.0075 122.925 25.064 113.716 25.064 113.716C25.064 113.716 25.8866 105.344 20.5397 104.507Z" fill="#575A89"/>
<path id="Vector_9" d="M71.5403 123.762C71.5403 123.762 70.7177 143.017 65.7822 145.11L77.7098 148.041C77.7098 148.041 83.4679 127.948 82.6453 127.111C81.8227 126.274 71.5403 123.762 71.5403 123.762Z" fill="#FFB9B9"/>
<path id="Vector_10" d="M0.994701 84.5683L8.05811 81.4279C8.32191 81.3106 8.62069 81.3048 8.88872 81.4117C9.15674 81.5186 9.37206 81.7295 9.4873 81.998L17.3399 100.292C17.4806 100.62 17.4876 100.992 17.3593 101.325C17.231 101.658 16.9779 101.926 16.6557 102.069L10.0328 105.014C9.71057 105.157 9.34564 105.164 9.01825 105.033C8.69087 104.903 8.42785 104.645 8.28708 104.317L0.434526 86.0228C0.377462 85.8899 0.346685 85.7468 0.343953 85.6018C0.34122 85.4567 0.366589 85.3125 0.418604 85.1775C0.470619 85.0424 0.548277 84.9191 0.64712 84.8146C0.745964 84.71 0.864077 84.6263 0.994701 84.5683V84.5683Z" fill="#2F2E41"/>
<path id="Vector_11" opacity="0.1" d="M0.994701 84.5683L8.05811 81.4279C8.32191 81.3106 8.62069 81.3048 8.88872 81.4117C9.15674 81.5186 9.37206 81.7295 9.4873 81.998L17.3399 100.292C17.4806 100.62 17.4876 100.992 17.3593 101.325C17.231 101.658 16.9779 101.926 16.6557 102.069L10.0328 105.014C9.71057 105.157 9.34564 105.164 9.01825 105.033C8.69087 104.903 8.42785 104.645 8.28708 104.317L0.434526 86.0228C0.377462 85.8899 0.346685 85.7468 0.343953 85.6018C0.34122 85.4567 0.366589 85.3125 0.418604 85.1775C0.470619 85.0424 0.548277 84.9191 0.64712 84.8146C0.745964 84.71 0.864077 84.6263 0.994701 84.5683V84.5683Z" fill="black"/>
<path id="Vector_12" d="M1.39548 85.502L7.55361 82.7642C7.81742 82.6469 8.11622 82.641 8.38425 82.748C8.65227 82.8549 8.86759 83.0658 8.98283 83.3342L16.4346 100.695C16.5753 101.023 16.5823 101.394 16.454 101.727C16.3257 102.061 16.0726 102.328 15.7504 102.471L10.0328 105.014C9.71056 105.157 9.3456 105.164 9.01822 105.033C8.69083 104.903 8.42784 104.645 8.28707 104.317L0.835323 86.9566C0.72008 86.6881 0.714357 86.384 0.819406 86.1113C0.924456 85.8385 1.13167 85.6193 1.39548 85.502V85.502Z" fill="#2F2E41"/>
<path id="Vector_13" d="M7.05887 92.9075C8.05881 92.4629 8.51051 91.2663 8.06779 90.2349C7.62506 89.2035 6.45556 88.7278 5.45562 89.1723C4.45568 89.6169 4.00395 90.8134 4.44667 91.8449C4.88939 92.8763 6.05892 93.352 7.05887 92.9075Z" fill="#F2F2F2"/>
<path id="Vector_14" opacity="0.1" d="M74.625 58.253L77.2984 54.2764C77.2984 54.2764 87.1695 69.7642 86.347 80.229C85.5244 90.6937 84.7018 91.1123 84.7018 92.7867C84.7018 94.461 82.6453 94.461 84.7018 96.554C86.7583 98.6469 89.6373 101.577 87.9922 103.251C86.347 104.926 85.1131 104.926 85.5244 107.019C85.7874 108.539 85.925 110.079 85.9357 111.623C85.9357 111.623 82.4396 118.53 81.2058 118.53C79.9719 118.53 68.25 129.623 68.25 128.367C68.25 127.111 69.4839 118.321 69.4839 117.065C69.4839 115.809 69.8952 111.623 70.7178 110.367C71.5403 109.112 71.5403 109.53 70.7178 108.274C69.8952 107.019 69.8951 108.274 69.8951 107.019C69.8951 105.763 70.3065 104.089 69.0726 103.67C67.8387 103.251 66.6048 103.67 67.4274 101.577C68.25 99.4841 67.4274 97.8097 67.0161 97.8097C66.6048 97.8097 64.5483 97.3911 65.7822 96.1354C67.0161 94.8796 63.3145 70.6014 63.3145 70.6014C63.3145 70.6014 63.9313 64.5319 74.625 58.253Z" fill="black"/>
<path id="Vector_15" d="M72.3629 49.2533L79.3549 52.602C79.3549 52.602 89.226 68.0899 88.4034 78.5546C87.5808 89.0194 86.7583 89.438 86.7583 91.1123C86.7583 92.7867 84.7018 92.7867 86.7583 94.8796C88.8147 96.9726 91.6938 99.9027 90.0486 101.577C88.4035 103.251 87.1696 103.251 87.5808 105.344C87.8439 106.865 87.9815 108.405 87.9922 109.949C87.9922 109.949 84.2905 130.041 83.0566 130.041C81.8227 130.041 70.3065 127.948 70.3065 126.692C70.3065 125.437 71.5404 116.646 71.5404 115.391C71.5404 114.135 71.9517 109.949 72.7743 108.693C73.5968 107.437 73.5968 107.856 72.7743 106.6C71.9517 105.344 71.9516 106.6 71.9516 105.344C71.9516 104.089 72.363 102.414 71.1291 101.996C69.8952 101.577 68.6613 101.996 69.4839 99.9027C70.3065 97.8098 69.4839 96.1354 69.0726 96.1354C68.6613 96.1354 66.6049 95.7168 67.8387 94.461C69.0726 93.2053 65.371 68.927 65.371 68.927C65.371 68.927 61.6693 55.5322 72.3629 49.2533Z" fill="#575A89"/>
<path id="Vector_16" d="M9.95311 107.497C9.5701 107.6 9.16385 107.566 8.80271 107.4C8.44157 107.234 8.1476 106.947 7.97024 106.586C6.0802 102.74 0.959177 91.4594 5.73312 91.1123C10.1372 90.7922 14.0601 99.5323 15.6615 103.66C15.7634 103.923 15.8095 104.204 15.7968 104.486C15.784 104.767 15.7127 105.043 15.5876 105.295C15.4624 105.546 15.2863 105.768 15.0707 105.945C14.8552 106.122 14.6052 106.251 14.3372 106.323L9.95311 107.497Z" fill="#FFB9B9"/>
<path id="Vector_17" d="M33.7012 37.9514C42.1058 37.9514 48.9191 31.0173 48.9191 22.4636C48.9191 13.9099 42.1058 6.97574 33.7012 6.97574C25.2965 6.97574 18.4833 13.9099 18.4833 22.4636C18.4833 31.0173 25.2965 37.9514 33.7012 37.9514Z" fill="#FFB9B9"/>
<path id="Vector_18" d="M28.1093 13.5438C26.2104 14.2106 24.2504 14.6815 22.259 14.9493C20.7602 15.1873 19.0063 15.3092 17.9529 14.1983C16.9192 13.1081 17.0864 11.2896 17.7916 9.95528C18.4967 8.62095 19.6262 7.57485 20.4736 6.32918C21.8062 4.37005 22.5928 1.77276 24.7238 0.785821C25.6069 0.441754 26.544 0.263607 27.4897 0.260022C33.0194 -0.0987841 38.7753 -0.422051 43.8963 1.73152C45.8204 2.47762 47.5252 3.71207 48.8485 5.31756C49.7153 6.49972 50.3842 7.8196 50.828 9.2238C52.1965 13.3557 52.5008 17.7758 51.7118 22.0616C50.9228 26.3473 49.0669 30.3555 46.3214 33.7029C44.4551 31.9916 45.2668 28.0373 42.9053 27.1653C42.1306 26.8792 41.2548 27.0783 40.4612 26.8518C37.9671 26.1401 38.0924 22.2174 36.0161 20.6413C35.5627 20.3929 35.1611 20.057 34.8338 19.6524C34.6513 19.2644 34.572 18.8344 34.6038 18.4053C34.5886 16.9358 35.2669 13.203 33.8895 12.1958C32.4875 11.1705 29.4565 13.0487 28.1093 13.5438Z" fill="#2F2E41"/>
</g>
</svg>
