<svg id="car" viewBox="0 0 500 301" fill="none" xmlns="http://www.w3.org/2000/svg">
<g id="Group 1">
<g id="TruckBody">
<rect id="Rectangle 1" x="2.5" y="8.5" width="281" height="182" fill="#D2CDE1" fill-opacity="0.26" stroke="black"/>
<path id="Vector" d="M297.539 0.58017H287.638V84.7391H297.539V0.58017Z" fill="#3F3D56"/>
<path id="Vector_2" d="M480.694 170.083H394.562V210.385H480.694V170.083Z" fill="#3F3D56"/>
<path id="Vector_3" d="M472.774 205.643H48.0509V250.686H472.774V205.643Z" fill="#3F3D56"/>
<path id="Vector_4" d="M402.477 227.664H301.504V75.1639H376.876L402.477 152.163V227.664Z" fill="#D0CDE1" stroke="black"/>
<path id="Vector_5" d="M360.406 84.1464H316.844V136.301H360.406V84.1464Z" fill="black" fill-opacity="0.26"/>
<path id="Vector_6" d="M393.076 136.894H365.356V84.7394H377.236L393.076 136.894Z" fill="black" fill-opacity="0.22"/>
<path id="Vector_7" d="M328.725 183.506V170.885C328.725 168.151 326.508 165.935 323.775 165.935C321.041 165.935 318.824 168.151 318.824 170.885V183.506C318.824 186.24 321.041 188.456 323.775 188.456C326.508 188.456 328.725 186.24 328.725 183.506Z" fill="#3F3D56"/>
<path id="Vector_8" d="M373.771 117.929H374.266C376.761 117.929 379.153 119.115 380.917 121.227C382.68 123.338 383.671 126.203 383.671 129.189V129.189C383.671 132.176 382.68 135.04 380.917 137.152C379.153 139.263 376.761 140.45 374.266 140.45H373.771V117.929Z" fill="#3F3D56"/>
<path id="Vector_9" d="M5.47951 205.643H5.97453C8.46897 205.643 10.8612 206.83 12.6251 208.942C14.3889 211.053 15.3798 213.918 15.3798 216.904V216.904C15.3798 219.891 14.3889 222.755 12.6251 224.867C10.8612 226.978 8.46897 228.165 5.97453 228.165H5.47951V205.643Z" fill="#3F3D56"/>
<path id="Vector_10" d="M442.578 205.473C457.665 205.473 471.235 214.224 480.651 228.165H500L481.189 165.43L393.572 144.74L396.047 228.165H404.505C413.921 214.224 427.491 205.473 442.578 205.473Z" fill="#D0CDE1"/>
<path id="Vector_11" d="M303.974 53.3277H283.183V232.906H303.974V53.3277Z" fill="#3F3D56"/>
<path id="Vector_12" d="M303.974 200.309H4.98451V210.977H303.974V200.309Z" fill="#3F3D56"/>
<path id="Vector_13" d="M283.163 189.375H2.47266V200.043H283.163V189.375Z" fill="#3F3D56"/>
<path id="Vector_14" d="M7 8H0L0 201H7V8Z" fill="#3F3D56"/>
<path id="Vector_15" d="M379.711 139.265H369.811V144.006H379.711V139.265Z" fill="#3F3D56"/>
<path id="Vector_16" d="M487.662 187.409L487.199 187.619C484.866 188.675 482.277 188.579 480.004 187.351C477.73 186.123 475.957 183.863 475.074 181.07V181.07C474.192 178.277 474.272 175.178 475.298 172.456C476.324 169.733 478.211 167.61 480.544 166.554L481.007 166.344L487.662 187.409Z" fill="#FBC846"/>
<path id="Vector_17" d="M292.5 19.8733C299.956 19.8733 306 15.6529 306 10.4466C306 5.24038 299.956 1.0199 292.5 1.0199C285.044 1.0199 279 5.24038 279 10.4466C279 15.6529 285.044 19.8733 292.5 19.8733Z" fill="#3F3D56"/>
</g>
<g id="BackWheel">
<path id="Vector_18" d="M60 301C84.8528 301 105 280.853 105 256C105 231.147 84.8528 211 60 211C35.1472 211 15 231.147 15 256C15 280.853 35.1472 301 60 301Z" fill="#3F3D56"/>
<path id="Vector_19" d="M60.1967 279.881C73.2771 279.881 83.8809 269.277 83.8809 256.197C83.8809 243.116 73.2771 232.512 60.1967 232.512C47.1163 232.512 36.5125 243.116 36.5125 256.197C36.5125 269.277 47.1163 279.881 60.1967 279.881Z" fill="#D0CDE1"/>
<line id="Line 1" x1="36.5125" y1="255.481" x2="83.8791" y2="256.459" stroke="black"/>
<line id="Line 4" x1="76.4971" y1="272.918" x2="43.6953" y2="238.733" stroke="black"/>
<line id="Line 3" x1="42.7499" y1="272.517" x2="76.9346" y2="239.715" stroke="black"/>
<line id="Line 2" x1="59.4807" y1="279.879" x2="60.4585" y2="232.513" stroke="black"/>
</g>
<g id="FrontWheel">
<path id="Vector_20" d="M443 300C467.853 300 488 279.853 488 255C488 230.147 467.853 210 443 210C418.147 210 398 230.147 398 255C398 279.853 418.147 300 443 300Z" fill="#3F3D56"/>
<path id="Vector_21" d="M443.197 278.881C456.277 278.881 466.881 268.277 466.881 255.197C466.881 242.116 456.277 231.513 443.197 231.513C430.116 231.513 419.512 242.116 419.512 255.197C419.512 268.277 430.116 278.881 443.197 278.881Z" fill="#D0CDE1"/>
<line id="Line 5" x1="419.512" y1="254.481" x2="466.879" y2="255.459" stroke="black"/>
<line id="Line 6" x1="459.497" y1="271.918" x2="426.695" y2="237.733" stroke="black"/>
<line id="Line 7" x1="425.75" y1="271.517" x2="459.935" y2="238.715" stroke="black"/>
<line id="Line 8" x1="442.481" y1="278.879" x2="443.46" y2="231.513" stroke="black"/>
</g>
</g>
</svg>
