<svg viewBox="0 0 500 301" fill="none" xmlns="http://www.w3.org/2000/svg">
<g id="truck 1">
<g clip-path="url(#clip0)">
<g id="Group 1">
<g id="TruckBody">
<path id="Rectangle 1" d="M283.5 8.5H2.5V190.5H283.5V8.5Z" fill="#D2CDE1" fill-opacity="0.26" stroke="black"/>
<path id="Vector" d="M297.539 0.58017H287.638V84.7391H297.539V0.58017Z" fill="#3F3D56"/>
<path id="Vector 2" d="M480.694 170.083H394.562V210.385H480.694V170.083Z" fill="#3F3D56"/>
<path id="Vector 3" d="M472.774 205.643H48.0509V250.686H472.774V205.643Z" fill="#3F3D56"/>
<path id="Vector 4" d="M402.477 227.664H301.504V75.1639H376.876L402.477 152.163V227.664Z" fill="#D0CDE1" stroke="black"/>
<path id="Vector 5" d="M360.406 84.1464H316.844V136.301H360.406V84.1464Z" fill="black" fill-opacity="0.26"/>
<path id="Vector 6" d="M393.076 136.894H365.356V84.7394H377.236L393.076 136.894Z" fill="black" fill-opacity="0.22"/>
<path id="Vector 7" d="M328.725 183.506V170.885C328.725 168.151 326.508 165.935 323.775 165.935C321.041 165.935 318.824 168.151 318.824 170.885V183.506C318.824 186.24 321.041 188.456 323.775 188.456C326.508 188.456 328.725 186.24 328.725 183.506Z" fill="#3F3D56"/>
<path id="Vector 8" d="M373.771 117.929H374.266C376.761 117.929 379.153 119.115 380.917 121.227C382.68 123.338 383.671 126.203 383.671 129.189C383.671 132.176 382.68 135.04 380.917 137.152C379.153 139.263 376.761 140.45 374.266 140.45H373.771V117.929Z" fill="#3F3D56"/>
<path id="Vector 9" d="M5.47951 205.643H5.97453C8.46897 205.643 10.8612 206.83 12.6251 208.942C14.3889 211.053 15.3798 213.918 15.3798 216.904C15.3798 219.891 14.3889 222.755 12.6251 224.867C10.8612 226.978 8.46897 228.165 5.97453 228.165H5.47951V205.643Z" fill="#3F3D56"/>
<path id="Vector 10" d="M442.578 205.473C457.665 205.473 471.235 214.224 480.651 228.165H500L481.189 165.43L393.572 144.74L396.047 228.165H404.505C413.921 214.224 427.491 205.473 442.578 205.473Z" fill="#D0CDE1"/>
<path id="Vector 11" d="M303.974 53.3277H283.183V232.906H303.974V53.3277Z" fill="#3F3D56"/>
<path id="Vector 12" d="M303.974 200.309H4.98451V210.977H303.974V200.309Z" fill="#3F3D56"/>
<path id="Vector 13" d="M283.163 189.375H2.47266V200.043H283.163V189.375Z" fill="#3F3D56"/>
<path id="Vector 14" d="M7 8H0V201H7V8Z" fill="#3F3D56"/>
<path id="Vector 15" d="M379.711 139.265H369.811V144.006H379.711V139.265Z" fill="#3F3D56"/>
<path id="Vector 16" d="M487.662 187.409L487.199 187.619C484.866 188.675 482.277 188.579 480.004 187.351C477.73 186.123 475.957 183.863 475.074 181.07C474.192 178.277 474.272 175.178 475.298 172.456C476.324 169.733 478.211 167.61 480.544 166.554L481.007 166.344L487.662 187.409Z" fill="#FBC846"/>
<path id="Vector 17" d="M292.5 19.8733C299.956 19.8733 306 15.6529 306 10.4466C306 5.24038 299.956 1.0199 292.5 1.0199C285.044 1.0199 279 5.24038 279 10.4466C279 15.6529 285.044 19.8733 292.5 19.8733Z" fill="#3F3D56"/>
</g>
<g id="BackWheel">
<path id="Vector 18" d="M60 301C84.8528 301 105 280.853 105 256C105 231.147 84.8528 211 60 211C35.1472 211 15 231.147 15 256C15 280.853 35.1472 301 60 301Z" fill="#3F3D56"/>
<path id="Vector 19" d="M60.1967 279.881C73.2771 279.881 83.8809 269.277 83.8809 256.197C83.8809 243.116 73.2771 232.512 60.1967 232.512C47.1163 232.512 36.5125 243.116 36.5125 256.197C36.5125 269.277 47.1163 279.881 60.1967 279.881Z" fill="#D0CDE1"/>
<path id="Line 1" d="M36.5125 255.481L83.8791 256.459" stroke="black"/>
<path id="Line 4" d="M76.4971 272.918L43.6953 238.733" stroke="black"/>
<path id="Line 3" d="M42.7499 272.517L76.9346 239.715" stroke="black"/>
<path id="Line 2" d="M59.4807 279.879L60.4585 232.513" stroke="black"/>
</g>
<g id="FrontWheel">
<path id="Vector 20" d="M443 300C467.853 300 488 279.853 488 255C488 230.147 467.853 210 443 210C418.147 210 398 230.147 398 255C398 279.853 418.147 300 443 300Z" fill="#3F3D56"/>
<path id="Vector 21" d="M443.197 278.881C456.277 278.881 466.881 268.277 466.881 255.197C466.881 242.116 456.277 231.513 443.197 231.513C430.116 231.513 419.512 242.116 419.512 255.197C419.512 268.277 430.116 278.881 443.197 278.881Z" fill="#D0CDE1"/>
<path id="Line 5" d="M419.512 254.481L466.879 255.459" stroke="black"/>
<path id="Line 6" d="M459.497 271.918L426.695 237.733" stroke="black"/>
<path id="Line 7" d="M425.75 271.517L459.935 238.715" stroke="black"/>
<path id="Line 8" d="M442.481 278.879L443.46 231.513" stroke="black"/>
</g>
</g>
<path id="FAST DELIVERY" d="M34.1924 93.8315H24.3486V104H19.2217V79.1172H35.4229V83.27H24.3486V89.6958H34.1924V93.8315ZM49.1631 98.873H40.1738L38.4648 104H33.0132L42.2759 79.1172H47.0269L56.3408 104H50.8892L49.1631 98.873ZM41.5581 94.7202H47.7788L44.6514 85.4062L41.5581 94.7202ZM71.5679 97.4717C71.5679 96.5033 71.2261 95.7627 70.5425 95.25C69.8589 94.7259 68.6284 94.179 66.8511 93.6094C65.0737 93.0283 63.6667 92.4587 62.6299 91.9004C59.8044 90.3737 58.3916 88.3172 58.3916 85.731C58.3916 84.3866 58.7676 83.1903 59.5195 82.1421C60.2829 81.0825 61.3709 80.2565 62.7837 79.6641C64.2078 79.0716 65.8029 78.7754 67.5688 78.7754C69.3462 78.7754 70.9299 79.1001 72.3198 79.7495C73.7098 80.3875 74.7865 81.2933 75.5498 82.4668C76.3245 83.6403 76.7119 84.9733 76.7119 86.4658H71.585C71.585 85.3265 71.2261 84.4435 70.5083 83.8169C69.7905 83.1789 68.7822 82.8599 67.4834 82.8599C66.2301 82.8599 65.256 83.1276 64.561 83.6631C63.866 84.1872 63.5186 84.8822 63.5186 85.748C63.5186 86.557 63.923 87.2349 64.7319 87.7817C65.5522 88.3286 66.7542 88.8413 68.3379 89.3198C71.2546 90.1971 73.3794 91.2852 74.7124 92.584C76.0454 93.8828 76.7119 95.5007 76.7119 97.4375C76.7119 99.5908 75.8973 101.283 74.2681 102.513C72.6388 103.732 70.4456 104.342 67.6885 104.342C65.7744 104.342 64.0312 103.994 62.459 103.299C60.8867 102.593 59.6847 101.63 58.853 100.411C58.0327 99.1921 57.6226 97.7793 57.6226 96.1729H62.7666C62.7666 98.9186 64.4072 100.292 67.6885 100.292C68.9076 100.292 69.8589 100.047 70.5425 99.5566C71.2261 99.0553 71.5679 98.3604 71.5679 97.4717ZM98.9287 83.27H91.3066V104H86.1797V83.27H78.6602V79.1172H98.9287V83.27ZM109.559 104V79.1172H117.215C119.402 79.1172 121.356 79.6128 123.077 80.604C124.808 81.5838 126.159 82.9852 127.127 84.8081C128.095 86.6196 128.58 88.6818 128.58 90.9946V92.1396C128.58 94.4525 128.101 96.509 127.144 98.3091C126.198 100.109 124.86 101.505 123.128 102.496C121.396 103.487 119.442 103.989 117.266 104H109.559ZM114.686 83.27V99.8813H117.164C119.169 99.8813 120.701 99.2262 121.761 97.916C122.82 96.6058 123.361 94.7316 123.384 92.2935V90.9775C123.384 88.4482 122.86 86.5342 121.812 85.2354C120.764 83.9251 119.231 83.27 117.215 83.27H114.686ZM147.293 93.2163H137.449V99.8813H149.002V104H132.322V79.1172H148.968V83.27H137.449V89.2002H147.293V93.2163ZM157.137 99.8813H168.023V104H152.01V79.1172H157.137V99.8813ZM176.431 104H171.304V79.1172H176.431V104ZM190.394 97.8306L196.033 79.1172H201.741L193.077 104H187.728L179.097 79.1172H184.788L190.394 97.8306ZM219.07 93.2163H209.227V99.8813H220.779V104H204.1V79.1172H220.745V83.27H209.227V89.2002H219.07V93.2163ZM232.999 94.8911H228.914V104H223.787V79.1172H233.033C235.972 79.1172 238.239 79.7723 239.834 81.0825C241.43 82.3927 242.227 84.2441 242.227 86.6367C242.227 88.3343 241.857 89.7528 241.116 90.8921C240.387 92.02 239.276 92.9201 237.784 93.5923L243.167 103.761V104H237.664L232.999 94.8911ZM228.914 90.7383H233.05C234.337 90.7383 235.334 90.4136 236.041 89.7642C236.747 89.1034 237.1 88.1976 237.1 87.0469C237.1 85.8734 236.764 84.9505 236.092 84.2783C235.431 83.6061 234.411 83.27 233.033 83.27H228.914V90.7383ZM253.899 90.3281L259.078 79.1172H264.683L256.514 94.9766V104H251.302V94.9766L243.133 79.1172H248.755L253.899 90.3281Z" fill="#9D8080"/>
<g id="SHOPON">
<path d="M81.1245 149.472C81.1245 148.503 80.7827 147.763 80.0991 147.25C79.4155 146.726 78.1851 146.179 76.4077 145.609C74.6304 145.028 73.2233 144.459 72.1865 143.9C69.361 142.374 67.9482 140.317 67.9482 137.731C67.9482 136.387 68.3242 135.19 69.0762 134.142C69.8395 133.083 70.9276 132.257 72.3403 131.664C73.7645 131.072 75.3595 130.775 77.1255 130.775C78.9028 130.775 80.4865 131.1 81.8765 131.75C83.2664 132.388 84.3431 133.293 85.1064 134.467C85.8812 135.64 86.2686 136.973 86.2686 138.466H81.1416C81.1416 137.326 80.7827 136.444 80.0649 135.817C79.3472 135.179 78.3389 134.86 77.04 134.86C75.7868 134.86 74.8127 135.128 74.1177 135.663C73.4227 136.187 73.0752 136.882 73.0752 137.748C73.0752 138.557 73.4797 139.235 74.2886 139.782C75.1089 140.329 76.3109 140.841 77.8945 141.32C80.8112 142.197 82.936 143.285 84.269 144.584C85.6021 145.883 86.2686 147.501 86.2686 149.438C86.2686 151.591 85.4539 153.283 83.8247 154.513C82.1955 155.732 80.0023 156.342 77.2451 156.342C75.3311 156.342 73.5879 155.994 72.0156 155.299C70.4434 154.593 69.2414 153.63 68.4097 152.411C67.5894 151.192 67.1792 149.779 67.1792 148.173H72.3232C72.3232 150.919 73.9639 152.292 77.2451 152.292C78.4642 152.292 79.4155 152.047 80.0991 151.557C80.7827 151.055 81.1245 150.36 81.1245 149.472ZM110.006 156H104.879V145.336H94.8818V156H89.7549V131.117H94.8818V141.2H104.879V131.117H110.006V156ZM134.94 144.123C134.94 146.572 134.507 148.72 133.642 150.565C132.776 152.411 131.534 153.835 129.916 154.838C128.31 155.84 126.464 156.342 124.379 156.342C122.317 156.342 120.477 155.846 118.859 154.855C117.241 153.864 115.988 152.451 115.099 150.617C114.21 148.771 113.76 146.652 113.749 144.259V143.029C113.749 140.579 114.188 138.426 115.065 136.569C115.954 134.7 117.201 133.271 118.808 132.279C120.425 131.277 122.271 130.775 124.345 130.775C126.418 130.775 128.258 131.277 129.865 132.279C131.483 133.271 132.73 134.7 133.607 136.569C134.496 138.426 134.94 140.574 134.94 143.012V144.123ZM129.745 142.995C129.745 140.386 129.278 138.403 128.344 137.047C127.41 135.692 126.076 135.014 124.345 135.014C122.624 135.014 121.297 135.686 120.363 137.03C119.429 138.363 118.956 140.323 118.944 142.909V144.123C118.944 146.663 119.411 148.634 120.346 150.036C121.28 151.437 122.624 152.138 124.379 152.138C126.099 152.138 127.421 151.465 128.344 150.121C129.267 148.765 129.734 146.794 129.745 144.208V142.995ZM143.793 147.233V156H138.666V131.117H148.373C150.242 131.117 151.882 131.459 153.295 132.143C154.719 132.826 155.813 133.8 156.576 135.065C157.34 136.318 157.721 137.748 157.721 139.354C157.721 141.793 156.884 143.718 155.209 145.131C153.546 146.532 151.238 147.233 148.288 147.233H143.793ZM143.793 143.08H148.373C149.729 143.08 150.76 142.761 151.466 142.123C152.184 141.485 152.543 140.574 152.543 139.389C152.543 138.17 152.184 137.184 151.466 136.432C150.749 135.68 149.757 135.293 148.493 135.27H143.793V143.08Z" fill="#155EA2"/>
<path d="M181.698 144.123C181.698 146.572 181.265 148.72 180.399 150.565C179.534 152.411 178.292 153.835 176.674 154.838C175.067 155.84 173.222 156.342 171.137 156.342C169.075 156.342 167.235 155.846 165.617 154.855C163.999 153.864 162.746 152.451 161.857 150.617C160.968 148.771 160.518 146.652 160.507 144.259V143.029C160.507 140.579 160.945 138.426 161.823 136.569C162.711 134.7 163.959 133.271 165.565 132.279C167.183 131.277 169.029 130.775 171.103 130.775C173.176 130.775 175.016 131.277 176.623 132.279C178.24 133.271 179.488 134.7 180.365 136.569C181.254 138.426 181.698 140.574 181.698 143.012V144.123ZM176.503 142.995C176.503 140.386 176.036 138.403 175.102 137.047C174.167 135.692 172.834 135.014 171.103 135.014C169.382 135.014 168.055 135.686 167.121 137.03C166.186 138.363 165.714 140.323 165.702 142.909V144.123C165.702 146.663 166.169 148.634 167.104 150.036C168.038 151.437 169.382 152.138 171.137 152.138C172.857 152.138 174.179 151.465 175.102 150.121C176.024 148.765 176.492 146.794 176.503 144.208V142.995ZM205.658 156H200.531L190.551 139.628V156H185.424V131.117H190.551L200.548 147.523V131.117H205.658V156Z" fill="#B62626"/>
<path d="M159.037 159.418H207.914V161.127H159.037V159.418Z" fill="#B62626"/>
</g>
</g>
</g>
<defs>
<clipPath id="clip0">
<rect width="500" height="301" fill="white"/>
</clipPath>
</defs>
</svg>
